<svg xmlns="http://www.w3.org/2000/svg" id="Layer_1" data-name="Layer 1" viewBox="0 0 318 78"><defs><style>.cls-1{fill:#1e384b;}.cls-2{fill:#243847;}.cls-3{fill:#692270;}.cls-4{fill:#1e394c;}</style></defs><path class="cls-1" d="M274,59.5a9.71,9.71,0,0,0-3.27.57h0l-.62.24.15.47v0l.14.42h0a2.69,2.69,0,0,0,.1.27l.12.37.43-.15h0l.21-.08a8.92,8.92,0,0,1,2.67-.45,1.39,1.39,0,0,1,1.06.34,3,3,0,0,1,.43,2.07,7.69,7.69,0,0,0-2-.29c-2.44,0-4,1.32-4,3.36A3.08,3.08,0,0,0,272.49,70a4.27,4.27,0,0,0,3-1.19v.94h1.69v-6c0-2.74-.51-4.23-3.21-4.23M275.3,67a3.33,3.33,0,0,1-2.57,1.29,1.54,1.54,0,0,1-1.59-1.62c0-1.13.86-1.84,2.23-1.84a4.37,4.37,0,0,1,1.93.35Z"></path><path class="cls-1" d="M267.62,60.43l.19-.44-.49-.23a3.57,3.57,0,0,0-1.51-.26,3.8,3.8,0,0,0-2.89,1.18v-.94h-1.69v10h1.9V62.66a3.07,3.07,0,0,1,2.56-1.29,2.34,2.34,0,0,1,.8.14l.53.22.18-.34v0l.06-.11h0c.16-.34.35-.81.35-.81h0"></path><path class="cls-1" d="M258.24,68.38l-.59-1-.5.22a5.68,5.68,0,0,1-1.73.53c-.69,0-.71-.07-.71-1.07V61.41H258V59.74h-3.3V57.68h0V56.51h-1.89v.61h0v2.61h-1.71v1.67h1.71v5.77c0,1.35.18,2.8,2.35,2.8a6.55,6.55,0,0,0,2.87-.85l.07,0,.4-.23-.25-.43a.08.08,0,0,0,0,0"></path><path class="cls-1" d="M316.54,68.42s0,0,0,0l-.59-1-.5.22a5.78,5.78,0,0,1-1.74.53c-.69,0-.7-.07-.7-1.07V61.41h3.3V59.74H313V57.68h0V56.51H311.1v.61h0v2.61h-1.72v1.67h1.72v5.77c0,1.35.18,2.8,2.35,2.8a6.6,6.6,0,0,0,2.87-.85l.06,0,.41-.23Z"></path><path class="cls-1" d="M281.19,73.24a2.4,2.4,0,0,1-1.12,2.38,1.92,1.92,0,0,1-.81.16,3.64,3.64,0,0,1-1.72-.68l0,0-.14-.09a3.19,3.19,0,0,1-.35-.24l-.17.27-.54.84-.23.36a6.13,6.13,0,0,0,.68.5,3.38,3.38,0,0,0,.64.38,4.19,4.19,0,0,0,1.82.4h.23c2.27-.09,3.62-1.66,3.62-4.25V59.76h-1.89Z"></path><path class="cls-1" d="M294.94,68.1l0,0-.2-.27c-.05-.08-.11-.15-.17-.23h0l-.29-.41-.49.33-.08,0a4.44,4.44,0,0,1-2.37.72,3.32,3.32,0,0,1-3.17-3h7.55l0-1.22h0a4.41,4.41,0,0,0-4.53-4.54,4.91,4.91,0,0,0-4.9,5.24,4.91,4.91,0,0,0,4.9,5.24,6.26,6.26,0,0,0,3.64-1.13h0l.47-.35-.3-.4Zm-3.74-6.89a2.7,2.7,0,0,1,2.61,2.45h-5.56a2.92,2.92,0,0,1,2.95-2.45"></path><path class="cls-1" d="M306.1,66.51l-.44.46h0l-.13.12a2.93,2.93,0,0,1-2.33,1.07,3.41,3.41,0,0,1,0-6.79,2.92,2.92,0,0,1,2.18,1l.42.48.5-.43h0l.33-.28h0l.06-.05h0l.47-.4-.44-.53h0a4.33,4.33,0,0,0-3.5-1.65,5.28,5.28,0,0,0-5.14,5.26A5.11,5.11,0,0,0,303.22,70,4.47,4.47,0,0,0,307,68h0l.36-.5Z"></path><path class="cls-1" d="M226.92,59.36a5.7,5.7,0,0,0-2.61.59V53.76H222.4v16.1h1.5l.23-1a4.55,4.55,0,0,0,3,1.24c2.57,0,4.66-2.42,4.66-5.4C231.83,61.56,229.81,59.36,226.92,59.36Zm.07,9a3.31,3.31,0,0,1-2.65-1.59v-5a5.31,5.31,0,0,1,2.35-.57c2,0,3.2,1.34,3.2,3.5C229.89,67.08,228.4,68.34,227,68.34Z"></path><polygon class="cls-1" points="242.29 59.61 241.99 60.31 238.7 67.49 235.22 60.29 234.89 59.61 232.63 59.61 237.64 69.74 234.85 75.74 234.07 77.4 236.19 77.4 244.08 60.32 244.41 59.61 242.29 59.61"></polygon><path class="cls-2" d="M291.27,21.7l.48-1.16L290.49,20a9.21,9.21,0,0,0-3.89-.67,9.83,9.83,0,0,0-7.45,3l0-.06V19.92h-4.34V45.68h4.88V27.45a7.93,7.93,0,0,1,6.61-3.35,6.32,6.32,0,0,1,2.06.37l1.38.57.45-.87,0-.09.15-.28h0c.42-.87.91-2.08.91-2.08v0"></path><path class="cls-2" d="M267.3,41.48l-.1-.13-.53-.72-.43-.58-.75-1-1.28.84L264,40a11.55,11.55,0,0,1-6.11,1.86,8.56,8.56,0,0,1-8.17-7.68h19.48L269.14,31h0a11.35,11.35,0,0,0-11.68-11.72c-7.32,0-12.63,5.68-12.63,13.51s5.31,13.51,12.63,13.51a16,16,0,0,0,9.38-2.92h0l1.23-.89-.77-1ZM257.63,23.7A7,7,0,0,1,264.36,30H250a7.51,7.51,0,0,1,7.59-6.31"></path><path class="cls-1" d="M65.27,46.49c-4.81,0-8.16-3.56-8.16-8.66,0-5.34,4.11-8.79,10.46-8.79a20.09,20.09,0,0,1,4.8.66c0-2.28-.21-4-1-4.8a3.34,3.34,0,0,0-2.51-.77,21.6,21.6,0,0,0-7.29,1.33c-.5.2-1.33.58-1.33.58s-.36-1-.51-1.51L59.19,23c-.21-.61-.55-1.51-.55-1.51S64.46,19.33,69,19.33c7,0,8.41,4,8.41,11V45.86H73.36l-.62-2.2A11.17,11.17,0,0,1,65.27,46.49Zm2.3-13.15c-3.43,0-5.48,1.68-5.48,4.49A3.68,3.68,0,0,0,66,41.75,8.41,8.41,0,0,0,72.3,38.6V34.15A11.14,11.14,0,0,0,67.57,33.34Z"></path><path class="cls-1" d="M118.06,43.65l-.48,2.25s-.5,0-1.25,0h-3V1.25h5.3V20.61a14.8,14.8,0,0,1,6.17-1.29c7.33,0,12.46,5.56,12.46,13.52,0,7.52-5.31,13.64-11.84,13.64A11.46,11.46,0,0,1,118.06,43.65Zm.63-17.86v12c.39.62,2.55,3.75,6.29,3.75,4.49,0,6.92-4.46,6.92-8.65s-2-8.41-7.66-8.41A13.21,13.21,0,0,0,118.69,25.79Z"></path><path class="cls-1" d="M96.4,19.33c6.72,0,10.13,4,10.13,11.74V45.8h-5.35V31c0-3-.88-6.52-5.09-6.52a9.39,9.39,0,0,0-6.9,3.22V45.8H83.91V20h4l.64,2.24A12,12,0,0,1,96.4,19.33Z"></path><polygon class="cls-3" points="25.03 19.98 0.29 19.98 0.29 24.89 20.49 24.89 20.49 45.83 25.03 45.83 25.03 19.98"></polygon><path class="cls-1" d="M44.09,45.67h-5.2V24.87H34V20.22h4.9V12.15c0-6.72,3.77-10.9,9.85-10.9,4.16,0,8.17,3.36,8.17,3.36s-.39.64-.77,1.29l-1,1.61C54.88,8,54.3,8.9,54.3,8.9s-1-.82-1.46-1.2A7.85,7.85,0,0,0,48.68,6c-3,0-4.59,2.17-4.59,6.12v8.07h8.26v4.65H44.09v20.8Z"></path><path class="cls-4" d="M209.71,46.7c-4.21,0-9.6-3.62-9.6-3.62s.35-.63.62-1.25l0-.08c.15-.22.36-.62.55-1l.32-.59c.22-.34.89-1.44.89-1.44s1,.78,1.52,1.09A10.33,10.33,0,0,0,209.71,42c2.15,0,3.59-1,3.59-2.52,0-1.88-1.62-2.76-5.27-4.59-2.61-1.28-7.47-3.66-7.47-8.59,0-2.83,2.27-7.06,8.52-7.06,3.16,0,8.85,2.74,8.85,2.74l-1,1.92-.5,1c-.25.46-.88,1.68-.88,1.68l-1.65-.89a11.92,11.92,0,0,0-4.79-1.45c-2.87,0-3.09,1.54-3.09,2,0,1.62,1.49,2.43,4.14,3.72l.24.11c4.2,2,8.54,4.09,8.54,9C218.91,42.74,215.39,46.7,209.71,46.7Z"></path><path class="cls-4" d="M232.88,46.75c-5.51,0-6.27-3.56-6.27-7.4V24.8h-4.39V20h4.39l0-8.11a12.22,12.22,0,0,1,1.68-.12l2-.05h1.66V20h8.47V24.8h-8.47V39c0,2.51.63,2.51,1.57,2.51a11.63,11.63,0,0,0,4.34-1.32,12.75,12.75,0,0,0,1.4-.79L241,42.28c.71,1.21.89,1.53.89,1.53S236,46.75,232.88,46.75Z"></path><path class="cls-4" d="M154.51,46.49c-7.14,0-12.95-6.15-12.95-13.71s5.81-13.58,12.95-13.58,13,6.09,13,13.58S161.66,46.49,154.51,46.49Zm0-22.15c-4.28,0-7.63,3.71-7.63,8.44s3.35,8.63,7.63,8.63,7.63-3.79,7.63-8.63S158.79,24.34,154.51,24.34Z"></path><path class="cls-4" d="M184.12,46.49c-7.11,0-12.9-6.13-12.9-13.65s5.79-13.53,12.9-13.53S197,25.38,197,32.84,191.24,46.49,184.12,46.49Zm0-22.07c-4.26,0-7.6,3.7-7.6,8.42s3.34,8.6,7.6,8.6,7.6-3.78,7.6-8.6S188.38,24.42,184.12,24.42Z"></path></svg>